<svg xmlns="http://www.w3.org/2000/svg" id="Layer_1" viewBox="0 0 184.25 61.2"><defs><style>.cls-1{fill:#fff;}</style></defs><path class="cls-1" d="M23.25,17.22c3.94,0,5.85-2.23,5.85-4.81s-1.44-3.82-4.26-4.91c-2.3-.89-3.32-1.66-3.32-3.22,0-1.14,.87-2.5,3.15-2.5,1.51,0,2.63,.5,3.17,.79l.59-1.76c-.74-.42-1.98-.82-3.69-.82-3.25,0-5.4,1.93-5.4,4.54,0,2.35,1.68,3.76,4.41,4.73,2.25,.87,3.15,1.76,3.15,3.32,0,1.69-1.29,2.85-3.49,2.85-1.48,0-2.9-.5-3.86-1.09l-.54,1.8c.89,.6,2.65,1.07,4.26,1.07Z"></path><polygon class="cls-1" points="19.53 14.35 19.53 14.35 19.53 14.34 19.53 14.35"></polygon><polygon class="cls-1" points="146.72 16.43 146.72 16.43 146.72 16.43 146.72 16.43"></polygon><path class="cls-1" d="M142.31,17.22c2.03,0,3.62-.4,4.41-.79l-.44-1.7c-.87,.42-2.21,.69-3.52,.69-4.06,0-6.42-2.63-6.42-6.71,0-4.39,2.6-6.89,6.52-6.89,1.39,0,2.55,.3,3.37,.69l.52-1.76c-.57-.3-1.88-.74-3.96-.74-5.18,0-8.72,3.29-8.72,8.77s3.54,8.45,8.25,8.45Z"></path><polygon class="cls-1" points="165.46 9.14 173.54 9.14 173.54 16.97 175.72 16.97 175.72 .27 173.54 .27 173.54 7.26 165.46 7.26 165.46 .27 163.3 .27 163.3 16.97 165.46 16.97 165.46 9.14"></polygon><polygon class="cls-1" points="58.09 15.16 50.85 15.16 50.85 9.14 57.34 9.14 57.35 9.14 57.35 7.36 50.86 7.36 50.86 2.08 57.72 2.08 57.72 .27 48.7 .27 48.7 16.97 58.09 16.97 58.09 15.16"></polygon><path class="cls-1" d="M108.58,9.73h2.03c1.96,.07,2.85,.94,3.35,3.25,.47,2.08,.84,3.52,1.12,3.99h2.23c-.35-.64-.74-2.25-1.29-4.58-.4-1.73-1.16-2.92-2.45-3.37v-.07c1.76-.59,3.15-2.06,3.15-4.26,0-1.29-.47-2.43-1.31-3.17-1.04-.94-2.53-1.36-4.83-1.36-1.49,0-3.05,.13-4.14,.35V16.97h2.16v-7.24Zm0-7.73c.34-.1,1.09-.2,2.13-.2,2.28,.03,3.84,.97,3.84,3.12,0,1.91-1.46,3.17-3.76,3.17h-2.2V2Z"></path><path class="cls-1" d="M79.06,11.72h5.92l1.78,5.25h2.3L83.37,.27h-2.6l-5.67,16.7h2.23l1.73-5.25Zm2.09-6.52c.32-1.02,.59-2.03,.84-3.02h.05c.25,.97,.5,1.96,.87,3.05l1.63,4.81h-5.02l1.63-4.83Z"></path><polygon class="cls-1" points="51.1 29.42 48.94 29.42 48.94 46.12 58.24 46.12 58.24 44.31 51.1 44.31 51.1 29.42"></polygon><path class="cls-1" d="M82.14,29.21c-4.46,0-7.76,3.47-7.76,8.77s3.25,8.47,7.51,8.47,7.76-3.05,7.76-8.8c0-4.95-3.05-8.45-7.51-8.45Zm-.12,15.49c-3.39,0-5.33-3.2-5.33-6.76,0-3.67,1.76-6.96,5.35-6.96s5.33,3.47,5.33,6.79c0,3.79-1.96,6.94-5.35,6.94Z"></path><polygon class="cls-1" points="167.67 29.48 165.51 29.48 165.51 46.18 174.8 46.18 174.8 44.38 167.67 44.38 167.67 29.48"></polygon><path class="cls-1" d="M113.68,31.32c1.39,0,2.55,.3,3.37,.69l.52-1.76c-.57-.3-1.88-.74-3.96-.74-5.18,0-8.72,3.29-8.72,8.77s3.54,8.45,8.25,8.45c2.03,0,3.62-.4,4.41-.79h0l-.44-1.7c-.87,.42-2.21,.69-3.52,.69-4.06,0-6.42-2.63-6.42-6.71,0-4.39,2.6-6.89,6.52-6.89Z"></path><path class="cls-1" d="M139.03,29.49l-5.67,16.7h2.23l1.73-5.25h5.92l1.78,5.25h2.3l-5.7-16.7h-2.6Zm-1.26,9.76l1.63-4.83c.32-1.02,.59-2.03,.84-3.02h.05c.25,.97,.5,1.96,.87,3.05l1.63,4.81h-5.02Z"></path><path class="cls-1" d="M17.28,41.13h7.48v4.39h2.06v-4.39h2.25v-1.71h-2.25v-10.01h-2.35l-7.18,10.28v1.44Zm2.2-1.76l3.94-5.48c.44-.74,.84-1.44,1.34-2.38h.07c-.05,.84-.07,1.69-.07,2.53v5.38h-5.28v-.05Z"></path><path class="cls-1" d="M24.02,22.23h0c-3.83,0-7.66,1.46-10.57,4.38-5.83,5.83-5.83,15.31,0,21.14s15.31,5.83,21.14,0c5.83-5.83,5.83-15.31,0-21.14-1.07-1.07-2.26-1.94-3.53-2.61H184.25v-1.76H24.02Zm9.32,24.27c-5.14,5.14-13.5,5.14-18.64,0s-5.14-13.5,0-18.64,13.5-5.14,18.64,0,5.14,13.5,0,18.64Z"></path><path class="cls-1" d="M11.85,47.24l-2.25,2.26,2.11,2.11,2.26-2.26c-.38-.31-.75-.65-1.11-1-.36-.36-.69-.73-1.01-1.11Z"></path><rect class="cls-1" x="-.36" y="53.39" width="12.26" height="4.07" transform="translate(-37.5 20.32) rotate(-45)"></rect></svg>